<?xml version="1.0" standalone="no"?>
<!DOCTYPE svg PUBLIC "-//W3C//DTD SVG 20010904//EN"
 "http://www.w3.org/TR/2001/REC-SVG-20010904/DTD/svg10.dtd">
<svg version="1.0" xmlns="http://www.w3.org/2000/svg"
 width="820.000000pt" height="860.000000pt" viewBox="0 0 820.000000 860.000000"
 preserveAspectRatio="xMidYMid meet">

<g transform="translate(0.000000,860.000000) scale(0.100000,-0.100000)"
fill="#000000" stroke="none">
<path d="M580 8184 c-167 -36 -338 -170 -414 -324 -71 -146 -66 154 -66 -3660
0 -3814 -5 -3514 66 -3660 51 -104 170 -223 274 -274 146 -71 -154 -66 3660
-66 3814 0 3514 -5 3660 66 104 51 223 170 274 274 71 146 66 -154 66 3660 0
3814 5 3514 -66 3660 -51 104 -170 223 -274 274 -146 71 155 66 -3665 65
-2919 0 -3460 -3 -3515 -15z m1980 -2904 l0 -460 -535 0 -535 0 0 460 0 460
535 0 535 0 0 -460z m3121 -780 c385 -38 718 -190 891 -407 176 -219 257 -476
288 -913 6 -86 10 -621 10 -1322 l0 -1178 -540 0 -539 0 -4 1177 c-3 1056 -5
1187 -20 1263 -67 334 -192 492 -433 546 -107 23 -358 15 -462 -15 -241 -71
-385 -227 -436 -473 -36 -176 -38 -234 -43 -1370 l-5 -1128 -529 0 -529 0 0
1845 0 1845 465 0 465 0 0 -251 c0 -140 4 -249 9 -247 5 2 36 40 70 85 169
225 457 403 804 498 185 50 346 64 538 45z m-3121 -2060 l0 -1760 -535 0 -535
0 0 1760 0 1760 535 0 535 0 0 -1760z"/>
</g>
</svg>
